# xmcd
#
# Track frame offsets:
#	150
#	13504
#	26147
#	43817
#	61783
#	83201
#	99890
#	119526
#	137872
#	148775
#	162950
#	181998
#	185747
#	199458
#	217832
#	243086
#
# Disc length: 3446 seconds
#
# Revision: 0
# Processed by: cddbd v1.5.1PL2 Copyright (c) Steve Scherf et al.
# Submitted via: EasyCDDAExtractor 8.1.2.3
#
DISCID=e20d7410
DTITLE=Akro - L'encre, le sang et la sueur
DYEAR=2006
DGENRE=Rap
TTITLE0=Intro
TTITLE1=Bitches from Brussels
TTITLE2=Loterie feat. Rejane Magloire
TTITLE3=Paradoxe
TTITLE4=Elle veut feat. Roldan (orishas)
TTITLE5=Faux Thug
TTITLE6=A la lettre feat. Buckshot et Steele (Boot camp)
TTITLE7=L'enfant caché feat. Kure
TTITLE8=Pires sont ceux feat. Christa
TTITLE9=Rien n'est acquis
TTITLE10=Jardins suspendus feat. Sandrine Collard
TTITLE11=Interlude musicale
TTITLE12=Mon beat est club
TTITLE13=L'équipe feat. Starflam
TTITLE14=Consanguin feat. James Deano, M.A.X., Sly Dee et Bievenu (BNS)
TTITLE15=Y a pas de thème
EXTD=
EXTT0=
EXTT1=
EXTT2=
EXTT3=
EXTT4=
EXTT5=
EXTT6=
EXTT7=
EXTT8=
EXTT9=
EXTT10=
EXTT11=
EXTT12=
EXTT13=
EXTT14=
EXTT15=
PLAYORDER=
